<svg xmlns="http://www.w3.org/2000/svg" id="Layer_1" x="0" y="0" version="1.1" viewBox="0 0 576 315" xml:space="preserve">
  <defs/>
  <style>
    .st0{fill:#1d252c}
  </style>
  <path d="M119.36 251.56l-20.45-4.84c-4.76-1.13-8.21-3.06-10.34-5.81-2.14-2.74-3.21-6.57-3.21-11.49 0-7.18 2.1-12.4 6.29-15.67 4.19-3.27 10.85-4.9 19.96-4.9 3.71 0 7.12.18 10.22.54 3.1.36 5.95.91 8.53 1.63v4.23c-2.74-.73-5.73-1.27-8.95-1.63-3.23-.36-6.53-.54-9.92-.54-7.82 0-13.39 1.23-16.7 3.69-3.31 2.46-4.96 6.59-4.96 12.4 0 3.87.83 6.79 2.48 8.77 1.65 1.98 4.37 3.45 8.17 4.42l20.45 4.96c5.89 1.45 9.9 3.45 12.04 5.99 2.14 2.54 3.21 6.51 3.21 11.92 0 7.98-2.02 13.57-6.05 16.76-4.03 3.19-10.57 4.78-19.6 4.78-4.92 0-9.68-.36-14.28-1.09-4.6-.73-8.27-1.61-11.01-2.66v-4.23c3.95 1.21 8.05 2.12 12.28 2.72 4.23.6 8.57.91 13.01.91 7.74 0 13.17-1.19 16.27-3.57 3.1-2.38 4.66-6.96 4.66-13.73 0-4.11-.83-7.12-2.48-9.01-1.66-1.91-4.86-3.42-9.62-4.55zM194.97 278.42v3.87c-2.1 1.29-5.02 2.36-8.77 3.21-3.75.85-7.72 1.27-11.92 1.27-8.39 0-14.26-2.3-17.6-6.9-3.35-4.6-5.02-12.62-5.02-24.07 0-11.05 2.18-18.95 6.53-23.71 4.36-4.76 11.65-7.14 21.9-7.14 2.02 0 3.85.04 5.5.12 1.65.08 4.25.4 7.8.97v3.99c-2.74-.48-5.04-.79-6.9-.91-1.86-.12-3.99-.18-6.41-.18-8.87 0-15.1 2.02-18.69 6.05-3.59 4.03-5.38 10.97-5.38 20.81 0 10.16 1.39 17.18 4.17 21.05 2.78 3.87 7.8 5.81 15.06 5.81 3.55 0 7.16-.4 10.83-1.21 3.67-.81 6.64-1.82 8.9-3.03zM226.24 286.77c-6.13 0-10.63-1.45-13.49-4.36-2.86-2.9-4.29-7.46-4.29-13.67 0-6.13 1.73-10.48 5.2-13.07 3.47-2.58 9.35-3.87 17.66-3.87 3.06 0 6.07.12 9.01.36 2.94.24 6.11.65 9.5 1.21v-7.02c0-6.37-1.35-10.87-4.05-13.49-2.7-2.62-7.08-3.93-13.13-3.93-3.55 0-6.69.16-9.44.48-2.74.32-5.61.89-8.59 1.69v-3.99c3.47-.81 6.59-1.37 9.38-1.69 2.78-.32 6.11-.48 9.98-.48 7.02 0 12.14 1.67 15.36 5.02 3.23 3.35 4.84 8.73 4.84 16.15v39.8h-3.75l-.36-6.41h-.12c-2.5 2.18-5.93 3.93-10.28 5.26-4.36 1.34-8.84 2.01-13.43 2.01zm5.32-31.22c-7.02 0-11.94.97-14.76 2.9-2.82 1.94-4.23 5.28-4.23 10.04 0 5 1.17 8.61 3.51 10.83 2.34 2.22 6.13 3.33 11.37 3.33 4.19 0 8.39-.64 12.58-1.94 4.19-1.29 7.46-2.9 9.8-4.84v-18.75c-2.82-.48-5.75-.87-8.77-1.15-3.03-.28-6.19-.42-9.5-.42zM277.41 285.92h-4.36v-59.76h3.63l.36 5.81h.36c4.36-2.5 8.39-4.29 12.1-5.38 3.71-1.09 7.58-1.63 11.61-1.63 6.53 0 11.47 1.65 14.82 4.96 3.35 3.31 5.02 8.19 5.02 14.64v41.37h-4.36v-41.01c0-5.4-1.39-9.42-4.17-12.04-2.78-2.62-7.08-3.93-12.88-3.93-3.39 0-6.9.54-10.53 1.63-3.63 1.09-7.5 2.76-11.61 5.02v50.32zM344.31 285.92h-4.36v-59.76h3.75l.36 5.56h.36c3.47-1.94 6.98-3.41 10.52-4.42 3.55-1.01 6.98-1.51 10.28-1.51.81 0 1.65.02 2.54.06.89.04 1.57.1 2.06.18v4.23c-.57-.16-1.29-.26-2.18-.3-.89-.04-2.1-.06-3.63-.06-3.07 0-6.35.5-9.86 1.51s-6.8 2.4-9.86 4.17v50.34zM397.61 286.77c-6.13 0-10.63-1.45-13.49-4.36-2.86-2.9-4.29-7.46-4.29-13.67 0-6.13 1.73-10.48 5.2-13.07 3.47-2.58 9.35-3.87 17.66-3.87 3.06 0 6.07.12 9.01.36 2.94.24 6.11.65 9.5 1.21v-7.02c0-6.37-1.35-10.87-4.05-13.49-2.7-2.62-7.08-3.93-13.13-3.93-3.55 0-6.69.16-9.44.48-2.74.32-5.61.89-8.59 1.69v-3.99c3.47-.81 6.59-1.37 9.38-1.69 2.78-.32 6.11-.48 9.98-.48 7.02 0 12.14 1.67 15.36 5.02 3.23 3.35 4.84 8.73 4.84 16.15v39.8h-3.75l-.36-6.41h-.12c-2.5 2.18-5.93 3.93-10.28 5.26-4.36 1.34-8.84 2.01-13.43 2.01zm5.32-31.22c-7.02 0-11.94.97-14.76 2.9-2.82 1.94-4.23 5.28-4.23 10.04 0 5 1.17 8.61 3.51 10.83 2.34 2.22 6.13 3.33 11.37 3.33 4.19 0 8.39-.64 12.58-1.94 4.19-1.29 7.46-2.9 9.8-4.84v-18.75c-2.82-.48-5.75-.87-8.77-1.15-3.03-.28-6.2-.42-9.5-.42zM457.25 296.08c.56-.81 1.11-1.84 1.63-3.09.52-1.25 1.55-3.81 3.09-7.68l-25.89-59.16h4.96l23.23 54.56 21.78-54.56h4.72l-26.74 65.69c-2.1 5.4-4.32 9.03-6.65 10.89-2.34 1.85-5.36 2.78-9.07 2.78-1.45 0-2.8-.06-4.05-.18s-2.48-.34-3.69-.67v-3.99c1.13.32 2.3.54 3.51.67 1.21.12 2.46.18 3.75.18 2.26 0 4.11-.4 5.56-1.21 1.44-.8 2.73-2.21 3.86-4.23z" class="st0"/>
  <g>
    <path d="M218.86 101.85v37.29c0 5.7 4.62 10.32 10.32 10.32h116.97c5.7 0 10.32-4.62 10.32-10.32v-37.29H218.86z" class="st0"/>
    <path fill="#f32735" d="M313.78 54.24c2.85 0 5.16 2.31 5.16 5.16s-2.31 5.16-5.16 5.16h-94.92c0-5.7 4.62-10.32 10.32-10.32h84.6zm32.37 0h-10.31c-2.85 0-5.16 2.31-5.16 5.16s2.31 5.16 5.16 5.16h20.63c0-5.7-4.62-10.32-10.32-10.32zm-80.92 25.85h86.07c2.85 0 5.16-2.31 5.16-5.16s-2.31-5.16-5.16-5.16h-86.07c-2.85 0-5.16 2.31-5.16 5.16s2.31 5.16 5.16 5.16zm-46.37-5.16c0 2.85 2.31 5.16 5.16 5.16h19.16c2.85 0 5.16-2.31 5.16-5.16s-2.31-5.16-5.16-5.16h-19.16c-2.85 0-5.16 2.31-5.16 5.16zm186.5 16.22c0-1.97-52.79-3.57-117.9-3.57-65.12 0-117.9 1.6-117.9 3.57s52.79 3.57 117.9 3.57c65.11 0 117.9-1.6 117.9-3.57z"/>
  </g>
</svg>
